<svg width="134" height="20" viewBox="0 0 134 20" fill="none" xmlns="http://www.w3.org/2000/svg">
<path d="M8.55262 19.3167C6.67025 19.3167 5.11333 18.9384 3.88187 18.182C2.6504 17.4079 1.7356 16.3524 1.13747 15.0153C0.539327 13.6783 0.240258 12.1566 0.240258 10.4501C0.240258 8.4798 0.609696 6.81733 1.34857 5.46272C2.10504 4.10811 3.14299 3.08776 4.46241 2.40166C5.79943 1.69797 7.33875 1.34612 9.08039 1.34612C10.0128 1.34612 10.7517 1.42528 11.297 1.58362C11.8424 1.72435 12.2734 1.87389 12.5901 2.03222C12.9067 2.17296 13.1882 2.24333 13.4345 2.24333C13.6984 2.24333 13.8831 2.14657 13.9886 1.95305C14.0942 1.75954 14.1998 1.55723 14.3053 1.34612H15.3081V7.67935H14.1734C13.8391 5.99049 13.241 4.73264 12.379 3.9058C11.5169 3.07896 10.4086 2.66554 9.054 2.66554C7.34755 2.66554 6.05452 3.29887 5.1749 4.56551C4.29528 5.81457 3.85548 7.60018 3.85548 9.92237C3.85548 11.6112 4.07538 12.9834 4.51519 14.039C4.97259 15.0945 5.6323 15.8686 6.49432 16.3612C7.37394 16.8361 8.42948 17.0736 9.66094 17.0736C10.9276 17.0736 11.9831 16.8537 12.8276 16.4139C13.6896 15.9565 14.4988 15.3056 15.2553 14.4612L16.0206 15.1473C15.4752 15.9213 14.8771 16.625 14.2261 17.2584C13.5752 17.8917 12.7924 18.3931 11.8776 18.7625C10.9804 19.1319 9.87205 19.3167 8.55262 19.3167ZM23.4545 19.2639C21.4665 19.2639 19.936 18.7185 18.8629 17.6278C17.7898 16.5371 17.2532 14.8746 17.2532 12.6404C17.2532 11.3913 17.4819 10.283 17.9393 9.31543C18.4143 8.34786 19.118 7.59139 20.0504 7.04603C20.9828 6.48307 22.1351 6.2016 23.5073 6.2016C25.5128 6.2016 27.0345 6.76455 28.0725 7.89046C29.128 8.99877 29.6558 10.5117 29.6558 12.4293C29.6558 13.907 29.4007 15.1561 28.8905 16.1764C28.3979 17.1968 27.6942 17.9708 26.7794 18.4986C25.8646 19.0088 24.7563 19.2639 23.4545 19.2639ZM23.5336 18.05C24.167 18.05 24.6771 17.8653 25.0642 17.4959C25.4688 17.1264 25.7591 16.5459 25.935 15.7542C26.1285 14.945 26.2253 13.8982 26.2253 12.614C26.2253 10.9603 25.9878 9.67608 25.5128 8.76128C25.0554 7.82888 24.3253 7.36269 23.3225 7.36269C22.4253 7.36269 21.7568 7.8025 21.317 8.68211C20.8948 9.54413 20.6837 10.7668 20.6837 12.3501C20.6837 14.3204 20.9212 15.7718 21.3962 16.7042C21.8712 17.619 22.5837 18.0676 23.5336 18.05ZM45.836 19H38.9486V18.05C39.5292 18.05 39.9426 17.9972 40.1889 17.8917C40.4528 17.7685 40.6111 17.575 40.6639 17.3111C40.7342 17.0297 40.7694 16.6426 40.7694 16.15V11.796C40.7694 10.8812 40.6727 10.1775 40.4792 9.68487C40.3032 9.19229 40.0481 8.85803 39.7139 8.68211C39.3796 8.50619 38.9838 8.41823 38.5264 8.41823C38.0866 8.41823 37.6908 8.49739 37.3389 8.65572C36.9871 8.81405 36.6616 9.00757 36.3626 9.23627C36.0811 9.46497 35.7908 9.70247 35.4917 9.94876L35.3334 8.44462H35.7556C36.4593 7.77611 37.119 7.23954 37.7348 6.83492C38.3681 6.4127 39.0894 6.2016 39.8986 6.2016C41.218 6.2016 42.2208 6.62381 42.9069 7.46824C43.6106 8.29508 43.9624 9.53534 43.9624 11.189V16.15C43.9624 16.625 44.0064 17.0033 44.0944 17.2847C44.1823 17.5662 44.3583 17.7685 44.6221 17.8917C44.9036 17.9972 45.3082 18.05 45.836 18.05V19ZM37.6556 19H30.7154V18.05C31.296 18.05 31.7094 17.9972 31.9557 17.8917C32.2196 17.7685 32.3779 17.5662 32.4307 17.2847C32.501 17.0033 32.5362 16.625 32.5362 16.15V9.13072C32.5362 8.65572 32.4395 8.34786 32.246 8.20712C32.07 8.04879 31.8061 7.96962 31.4543 7.96962C31.2256 7.96962 31.0497 7.97842 30.9265 7.99601C30.8034 8.0136 30.7418 8.0224 30.7418 8.0224V7.04603L34.5418 6.28076H35.6765L35.6501 8.78767L35.7292 9.42099V16.15C35.7292 16.625 35.7644 17.0033 35.8348 17.2847C35.9052 17.5662 36.0723 17.7685 36.3362 17.8917C36.6176 17.9972 37.0575 18.05 37.6556 18.05V19ZM54.6001 16.2556L55.207 16.8889C54.8728 17.3639 54.5297 17.7861 54.1779 18.1556C53.826 18.525 53.4038 18.8153 52.9112 19.0264C52.4186 19.2375 51.7765 19.343 50.9849 19.343C50.0173 19.343 49.296 19.0704 48.821 18.525C48.346 17.9621 48.1085 16.9857 48.1085 15.5959V8.07518H46.5252V7.15158C47.2113 6.71177 47.8446 6.15762 48.4252 5.48911C49.0057 4.8206 49.5511 3.93219 50.0613 2.82387H51.3015V6.6502H54.4681V8.07518H51.3015V14.7515C51.3015 15.7014 51.3895 16.3524 51.5654 16.7042C51.7589 17.0385 52.102 17.2056 52.5946 17.2056C53.0695 17.2056 53.439 17.1264 53.7029 16.9681C53.9843 16.7922 54.2834 16.5547 54.6001 16.2556ZM62.4486 19H55.3237V18.05C55.9218 18.05 56.3528 18.006 56.6167 17.9181C56.8806 17.8125 57.0565 17.619 57.1445 17.3375C57.2325 17.0561 57.2764 16.669 57.2764 16.1764V9.20988C57.2764 8.62933 57.1621 8.27749 56.9334 8.15434C56.7047 8.0136 56.3968 7.94323 56.0098 7.94323C55.8339 7.94323 55.6755 7.95203 55.5348 7.96962C55.3941 7.98722 55.3237 7.99601 55.3237 7.99601V7.01964L59.0445 6.28076H60.4694V16.1237C60.4694 16.6338 60.5134 17.0297 60.6014 17.3111C60.6893 17.5926 60.8741 17.7861 61.1555 17.8917C61.437 17.9972 61.868 18.05 62.4486 18.05V19ZM58.8334 4.45996C58.2528 4.45996 57.7866 4.29283 57.4348 3.95858C57.1005 3.60673 56.9334 3.15813 56.9334 2.61276C56.9334 2.085 57.1005 1.64519 57.4348 1.29334C57.769 0.941496 58.2352 0.765573 58.8334 0.765573C59.4491 0.765573 59.9153 0.941496 60.2319 1.29334C60.5662 1.6276 60.7333 2.0674 60.7333 2.61276C60.7333 3.15813 60.5662 3.60673 60.2319 3.95858C59.9153 4.29283 59.4491 4.45996 58.8334 4.45996ZM78.3206 19H71.4332V18.05C72.0138 18.05 72.4272 17.9972 72.6735 17.8917C72.9374 17.7685 73.0957 17.575 73.1485 17.3111C73.2189 17.0297 73.254 16.6426 73.254 16.15V11.796C73.254 10.8812 73.1573 10.1775 72.9638 9.68487C72.7878 9.19229 72.5328 8.85803 72.1985 8.68211C71.8642 8.50619 71.4684 8.41823 71.011 8.41823C70.5712 8.41823 70.1754 8.49739 69.8235 8.65572C69.4717 8.81405 69.1462 9.00757 68.8472 9.23627C68.5657 9.46497 68.2754 9.70247 67.9763 9.94876L67.818 8.44462H68.2402C68.9439 7.77611 69.6036 7.23954 70.2194 6.83492C70.8527 6.4127 71.574 6.2016 72.3832 6.2016C73.7026 6.2016 74.7054 6.62381 75.3915 7.46824C76.0952 8.29508 76.447 9.53534 76.447 11.189V16.15C76.447 16.625 76.491 17.0033 76.579 17.2847C76.6669 17.5662 76.8429 17.7685 77.1068 17.8917C77.3882 17.9972 77.7929 18.05 78.3206 18.05V19ZM70.1402 19H63.2V18.05C63.7806 18.05 64.194 17.9972 64.4403 17.8917C64.7042 17.7685 64.8625 17.5662 64.9153 17.2847C64.9857 17.0033 65.0208 16.625 65.0208 16.15V9.13072C65.0208 8.65572 64.9241 8.34786 64.7306 8.20712C64.5546 8.04879 64.2908 7.96962 63.9389 7.96962C63.7102 7.96962 63.5343 7.97842 63.4111 7.99601C63.288 8.0136 63.2264 8.0224 63.2264 8.0224V7.04603L67.0264 6.28076H68.1611L68.1347 8.78767L68.2138 9.42099V16.15C68.2138 16.625 68.249 17.0033 68.3194 17.2847C68.3898 17.5662 68.5569 17.7685 68.8208 17.8917C69.1023 17.9972 69.5421 18.05 70.1402 18.05V19ZM94.6223 15.425C94.1723 16.525 93.564 17.4417 92.7973 18.175C92.0307 18.8917 91.189 19.25 90.2723 19.25C89.739 19.25 89.2807 19.0833 88.8973 18.75C88.5307 18.4167 88.3473 17.9417 88.3473 17.325C88.3473 17.1083 88.3723 16.875 88.4223 16.625L88.5973 15.8C87.914 16.7833 87.1057 17.6083 86.1723 18.275C85.2557 18.925 84.2807 19.25 83.2473 19.25C82.1473 19.25 81.3057 19.0167 80.7223 18.55C80.139 18.0833 79.8473 17.3667 79.8473 16.4C79.8473 15.9667 79.889 15.5667 79.9723 15.2L81.5223 7.5C81.0557 7.41667 80.539 7.26667 79.9723 7.05L80.0223 6.8L84.9473 6.3L83.1723 15.1C83.039 15.7333 82.9723 16.225 82.9723 16.575C82.9723 17.125 83.089 17.525 83.3223 17.775C83.5723 18.025 83.939 18.15 84.4223 18.15C84.989 18.15 85.6723 17.7833 86.4723 17.05C87.289 16.3 88.114 15.3083 88.9473 14.075L90.4473 6.55H93.6223L91.5973 16.475C91.5473 16.725 91.5223 16.9583 91.5223 17.175C91.5223 17.6083 91.6473 17.825 91.8973 17.825C92.1807 17.825 92.539 17.5417 92.9723 16.975C93.4057 16.3917 93.7557 15.775 94.0223 15.125L94.6223 15.425ZM110.162 15.425C109.712 16.525 109.104 17.4417 108.337 18.175C107.571 18.8917 106.729 19.25 105.812 19.25C105.279 19.25 104.821 19.0833 104.437 18.75C104.071 18.4167 103.887 17.9417 103.887 17.325C103.887 17.1083 103.912 16.875 103.962 16.625L104.137 15.8C103.454 16.7833 102.646 17.6083 101.712 18.275C100.796 18.925 99.8207 19.25 98.7874 19.25C97.6874 19.25 96.8457 19.0167 96.2624 18.55C95.679 18.0833 95.3874 17.3667 95.3874 16.4C95.3874 15.9667 95.429 15.5667 95.5124 15.2L97.0624 7.5C96.5957 7.41667 96.079 7.26667 95.5124 7.05L95.5624 6.8L100.487 6.3L98.7124 15.1C98.579 15.7333 98.5124 16.225 98.5124 16.575C98.5124 17.125 98.629 17.525 98.8624 17.775C99.1124 18.025 99.479 18.15 99.9624 18.15C100.529 18.15 101.212 17.7833 102.012 17.05C102.829 16.3 103.654 15.3083 104.487 14.075L105.987 6.55H109.162L107.137 16.475C107.087 16.725 107.062 16.9583 107.062 17.175C107.062 17.6083 107.187 17.825 107.437 17.825C107.721 17.825 108.079 17.5417 108.512 16.975C108.946 16.3917 109.296 15.775 109.562 15.125L110.162 15.425ZM126.026 19H119.112V18.05C119.675 18.05 120.08 17.9972 120.326 17.8917C120.59 17.7685 120.757 17.5574 120.827 17.2584C120.898 16.9593 120.933 16.5459 120.933 16.0181V11.4793C120.933 10.283 120.748 9.47377 120.379 9.05155C120.027 8.62933 119.543 8.41823 118.927 8.41823C118.523 8.41823 118.136 8.49739 117.766 8.65572C117.414 8.81405 117.08 9.01637 116.763 9.26266C116.447 9.49136 116.156 9.74645 115.893 10.0279L115.708 8.44462H116.156C116.79 7.86407 117.423 7.3451 118.056 6.8877C118.707 6.4303 119.49 6.2016 120.405 6.2016C121.425 6.2016 122.226 6.47428 122.806 7.01964C123.405 7.565 123.8 8.30388 123.994 9.23627C124.029 9.42978 124.055 9.6321 124.073 9.8432C124.108 10.0543 124.126 10.2654 124.126 10.4765V16.0181C124.126 16.5283 124.17 16.9329 124.258 17.232C124.346 17.531 124.522 17.7422 124.786 17.8653C125.049 17.9884 125.463 18.05 126.026 18.05V19ZM118.056 19H111.116V18.05C111.679 18.05 112.084 17.9972 112.33 17.8917C112.594 17.7861 112.761 17.5926 112.832 17.3111C112.902 17.0297 112.937 16.6426 112.937 16.15V9.1571C112.937 8.66452 112.849 8.34786 112.673 8.20712C112.497 8.04879 112.225 7.96962 111.855 7.96962C111.626 7.96962 111.451 7.97842 111.327 7.99601C111.204 8.0136 111.143 8.0224 111.143 8.0224V7.04603L114.916 6.28076H116.051V8.78767L116.13 9.44738V16.2028C116.13 16.6778 116.174 17.0561 116.262 17.3375C116.35 17.6014 116.526 17.7861 116.79 17.8917C117.071 17.9972 117.493 18.05 118.056 18.05V19ZM133.942 19H127.134V18.05C127.679 18.05 128.075 17.9884 128.322 17.8653C128.568 17.7246 128.726 17.5047 128.797 17.2056C128.867 16.9065 128.902 16.5107 128.902 16.0181V11.5321C128.902 10.7228 128.814 10.0895 128.638 9.6321C128.48 9.1747 128.242 8.85803 127.926 8.68211C127.627 8.50619 127.266 8.41823 126.844 8.41823C126.281 8.41823 125.735 8.58535 125.208 8.91961C124.698 9.23627 124.24 9.59691 123.836 10.0015L123.492 8.52378H123.915C124.601 7.83768 125.296 7.28352 125.999 6.86131C126.703 6.4215 127.46 6.2016 128.269 6.2016C129.43 6.2016 130.353 6.58863 131.04 7.36269C131.743 8.13675 132.095 9.36821 132.095 11.0571V16.0181C132.095 16.5107 132.13 16.9153 132.201 17.232C132.289 17.531 132.465 17.7422 132.728 17.8653C132.992 17.9884 133.397 18.05 133.942 18.05V19Z" fill="white"/>
</svg>
