<?xml version="1.0" encoding="UTF-8"?>
<svg version="1.1" xmlns="http://www.w3.org/2000/svg" width="48" height="47">
<path d="M0 0 C1.13566406 -0.03738281 2.27132813 -0.07476563 3.44140625 -0.11328125 C6.4375 0.3125 6.4375 0.3125 8.22265625 2.27734375 C8.62355469 2.94894531 9.02445313 3.62054688 9.4375 4.3125 C10.05625 4.60125 10.675 4.89 11.3125 5.1875 C17.1188111 8.26142941 19.44336205 14.0671209 21.8359375 19.84765625 C22.54127939 22.73772596 22.32339654 24.48810941 21.4375 27.3125 C20.7775 27.9725 20.1175 28.6325 19.4375 29.3125 C19.355 30.199375 19.2725 31.08625 19.1875 32 C18.14033445 36.62498117 15.77737631 39.05593126 12.4375 42.3125 C11.92058594 42.82554688 11.40367188 43.33859375 10.87109375 43.8671875 C6.6160917 47.49675551 2.79260245 48.00325012 -2.71875 47.73828125 C-9.52808143 46.71875223 -16.32311934 43.78514203 -21.5625 39.3125 C-26.38949498 29.82495814 -26.84197145 21.08507197 -23.609375 10.9921875 C-22.5625 9.3125 -22.5625 9.3125 -20.515625 8.7578125 C-19.54882812 8.53738281 -19.54882812 8.53738281 -18.5625 8.3125 C-18.2325 7.3225 -17.9025 6.3325 -17.5625 5.3125 C-11.53208586 1.44393244 -7.21456329 0.15594619 0 0 Z M3.4375 3.3125 C3.4375 3.9725 3.4375 4.6325 3.4375 5.3125 C4.0975 5.3125 4.7575 5.3125 5.4375 5.3125 C5.4375 4.6525 5.4375 3.9925 5.4375 3.3125 C4.7775 3.3125 4.1175 3.3125 3.4375 3.3125 Z M-10.5625 7.3125 C-9.9025 8.6325 -9.2425 9.9525 -8.5625 11.3125 C-6.60483719 11.39332094 -4.64623272 11.45160778 -2.6875 11.5 C-1.59695312 11.53480469 -0.50640625 11.56960937 0.6171875 11.60546875 C2.01324219 11.46044922 2.01324219 11.46044922 3.4375 11.3125 C4.0975 10.3225 4.7575 9.3325 5.4375 8.3125 C-0.8980632 5.37098852 -3.94339819 5.06673331 -10.5625 7.3125 Z M-15.5625 11.3125 C-15.665625 11.93125 -15.76875 12.55 -15.875 13.1875 C-16.5625 15.3125 -16.5625 15.3125 -19.5625 17.3125 C-20.13998803 19.27611864 -20.13998803 19.27611864 -20.25 21.4375 C-20.353125 22.71625 -20.45625 23.995 -20.5625 25.3125 C-19.5725 25.6425 -18.5825 25.9725 -17.5625 26.3125 C-14.06321836 23.97964557 -13.9295902 23.10454931 -12.875 19.1875 C-12.62363281 18.27742188 -12.37226563 17.36734375 -12.11328125 16.4296875 C-11.93152344 15.73101562 -11.74976563 15.03234375 -11.5625 14.3125 C-12.8825 13.3225 -14.2025 12.3325 -15.5625 11.3125 Z M8.83984375 12.52734375 C7.21120331 14.22136347 7.21120331 14.22136347 7.44140625 16.50390625 C7.62574219 17.28636719 7.81007812 18.06882812 8 18.875 C8.16628906 19.66003906 8.33257812 20.44507813 8.50390625 21.25390625 C9.67722753 23.84110421 10.83417275 24.32760114 13.4375 25.3125 C14.85668824 22.73441312 14.85668824 22.73441312 15.4375 19.3125 C14.43810096 16.43793987 13.02728894 13.90083406 11.4375 11.3125 C10.23565616 11.21161989 10.23565616 11.21161989 8.83984375 12.52734375 Z M-6.5625 17.3125 C-8.0475 21.2725 -8.0475 21.2725 -9.5625 25.3125 C-7.5825 26.9625 -5.6025 28.6125 -3.5625 30.3125 C-0.5905615 29.18798273 1.77190687 28.08956209 4.4375 26.3125 C3.95265724 21.66663108 3.95265724 21.66663108 2.4375 17.3125 C-0.5325 17.3125 -3.5025 17.3125 -6.5625 17.3125 Z M17.4375 23.3125 C17.7675 23.9725 18.0975 24.6325 18.4375 25.3125 C18.7675 24.6525 19.0975 23.9925 19.4375 23.3125 C18.7775 23.3125 18.1175 23.3125 17.4375 23.3125 Z M1.92578125 33.578125 C0.11709367 35.3652109 0.11709367 35.3652109 0 38.6875 C0.144375 39.55375 0.28875 40.42 0.4375 41.3125 C0.7675 40.6525 1.0975 39.9925 1.4375 39.3125 C2.736875 39.5290625 2.736875 39.5290625 4.0625 39.75 C8.54812798 39.16852971 9.66235644 37.29883937 12.3359375 33.84375 C12.69945312 33.3384375 13.06296875 32.833125 13.4375 32.3125 C8.23262419 28.14859935 6.67841452 29.44540042 1.92578125 33.578125 Z M-13.5625 29.3125 C-14.8825 30.3025 -16.2025 31.2925 -17.5625 32.3125 C-17.088125 32.745625 -16.61375 33.17875 -16.125 33.625 C-14.5625 35.3125 -14.5625 35.3125 -13.5625 38.3125 C-10.72916667 40.14583333 -10.72916667 40.14583333 -7.5625 41.3125 C-6.5725 40.9825 -5.5825 40.6525 -4.5625 40.3125 C-4.18623786 37.95226913 -4.18623786 37.95226913 -4.5625 35.3125 C-6.51205364 33.40807709 -6.51205364 33.40807709 -9.0625 32 C-9.8978125 31.48824219 -10.733125 30.97648437 -11.59375 30.44921875 C-12.56828125 29.88654297 -12.56828125 29.88654297 -13.5625 29.3125 Z M-22.5625 34.3125 C-21.5625 36.3125 -21.5625 36.3125 -21.5625 36.3125 Z M-18.5625 36.3125 C-18.2325 36.9725 -17.9025 37.6325 -17.5625 38.3125 C-17.2325 37.6525 -16.9025 36.9925 -16.5625 36.3125 C-17.2225 36.3125 -17.8825 36.3125 -18.5625 36.3125 Z M4.4375 41.3125 C4.1075 41.9725 3.7775 42.6325 3.4375 43.3125 C4.0975 43.3125 4.7575 43.3125 5.4375 43.3125 C5.1075 42.6525 4.7775 41.9925 4.4375 41.3125 Z M0.4375 44.3125 C1.4375 46.3125 1.4375 46.3125 1.4375 46.3125 Z " fill="#36DDF0" transform="translate(25.5625,-0.3125)"/>
<path d="M0 0 C1.13566406 -0.03738281 2.27132813 -0.07476563 3.44140625 -0.11328125 C6.4375 0.3125 6.4375 0.3125 8.21875 2.26953125 C8.6209375 2.94371094 9.023125 3.61789063 9.4375 4.3125 C10.76217746 4.9962045 12.09613633 5.66214186 13.4375 6.3125 C15.6875 8.25 15.6875 8.25 17.4375 10.3125 C17.4375 11.3025 17.4375 12.2925 17.4375 13.3125 C15.0625 13.9375 15.0625 13.9375 12.4375 14.3125 C11.7775 13.6525 11.1175 12.9925 10.4375 12.3125 C8.86476432 15.1549854 8.86476432 15.1549854 8.4375 18.3125 C5.4675 18.8075 5.4675 18.8075 2.4375 19.3125 C2.4375 18.6525 2.4375 17.9925 2.4375 17.3125 C0.99913249 17.42708693 -0.43820966 17.55459116 -1.875 17.6875 C-2.67550781 17.75710937 -3.47601562 17.82671875 -4.30078125 17.8984375 C-6.83474441 18.20814426 -6.83474441 18.20814426 -9.5625 20.3125 C-10.8825 20.3125 -12.2025 20.3125 -13.5625 20.3125 C-13.35625 19.36375 -13.15 18.415 -12.9375 17.4375 C-12.81375 16.40625 -12.69 15.375 -12.5625 14.3125 C-13.2225 13.6525 -13.8825 12.9925 -14.5625 12.3125 C-14.85125 12.951875 -15.14 13.59125 -15.4375 14.25 C-16.5625 16.3125 -16.5625 16.3125 -18.5625 17.3125 C-19.24722665 19.20014903 -19.24722665 19.20014903 -19.6875 21.375 C-19.85507812 22.10847656 -20.02265625 22.84195312 -20.1953125 23.59765625 C-20.31648438 24.16355469 -20.43765625 24.72945312 -20.5625 25.3125 C-22.2125 25.3125 -23.8625 25.3125 -25.5625 25.3125 C-25.91835949 19.73736802 -25.40260246 14.25088711 -22.5625 9.3125 C-21.23856129 8.94361631 -19.90476943 8.60779927 -18.5625 8.3125 C-18.2325 7.3225 -17.9025 6.3325 -17.5625 5.3125 C-11.53208586 1.44393244 -7.21456329 0.15594619 0 0 Z M3.4375 3.3125 C3.4375 3.9725 3.4375 4.6325 3.4375 5.3125 C4.0975 5.3125 4.7575 5.3125 5.4375 5.3125 C5.4375 4.6525 5.4375 3.9925 5.4375 3.3125 C4.7775 3.3125 4.1175 3.3125 3.4375 3.3125 Z M-10.5625 7.3125 C-9.9025 8.6325 -9.2425 9.9525 -8.5625 11.3125 C-6.60483719 11.39332094 -4.64623272 11.45160778 -2.6875 11.5 C-1.59695312 11.53480469 -0.50640625 11.56960937 0.6171875 11.60546875 C2.01324219 11.46044922 2.01324219 11.46044922 3.4375 11.3125 C4.0975 10.3225 4.7575 9.3325 5.4375 8.3125 C-0.8980632 5.37098852 -3.94339819 5.06673331 -10.5625 7.3125 Z " fill="#85E969" transform="translate(25.5625,-0.3125)"/>
<path d="M0 0 C2.86973866 2.86973866 3.95592483 6.11454884 5 10 C4.9375 12.875 4.9375 12.875 4 15 C0.2298947 17.38914538 -3.40877825 17.39814708 -7.7578125 17.65625 C-10.19862867 17.80410474 -10.19862867 17.80410474 -12 20 C-14.50416447 20.19939483 -16.87312191 20.27843043 -19.375 20.25 C-20.04789063 20.25773437 -20.72078125 20.26546875 -21.4140625 20.2734375 C-25.19247867 20.25856185 -27.71592978 19.81851552 -31 18 C-32.66967972 18.6590841 -34.33607955 19.32650839 -36 20 C-39.3125 19.625 -39.3125 19.625 -42 19 C-42.33 17.02 -42.66 15.04 -43 13 C-40.98177083 13.03255208 -38.96354167 13.06510417 -36.9453125 13.09765625 C-34.91814596 13.12649242 -34.91814596 13.12649242 -33 12 C-32.7525 11.34 -32.505 10.68 -32.25 10 C-31 8 -31 8 -27.875 7.25 C-26.92625 7.1675 -25.9775 7.085 -25 7 C-25.33 8.98 -25.66 10.96 -26 13 C-24.35 14.32 -22.7 15.64 -21 17 C-20.236875 16.690625 -19.47375 16.38125 -18.6875 16.0625 C-16.81210323 15.32106407 -14.91315348 14.63771783 -13 14 C-13.33 11.69 -13.66 9.38 -14 7 C-12.35 6.67 -10.7 6.34 -9 6 C-8.319375 7.4540625 -8.319375 7.4540625 -7.625 8.9375 C-6.34213779 12.07079582 -6.34213779 12.07079582 -4 13 C-2.9742741 8.58937864 -2.96315288 6.07369424 -5 2 C-3.35 1.34 -1.7 0.68 0 0 Z M0 11 C0.33 11.66 0.66 12.32 1 13 C1.33 12.34 1.66 11.68 2 11 C1.34 11 0.68 11 0 11 Z " fill="#4ADFD1" transform="translate(43,12)"/>
<path d="M0 0 C1.13566406 -0.03738281 2.27132813 -0.07476563 3.44140625 -0.11328125 C6.4375 0.3125 6.4375 0.3125 8.21875 2.26953125 C8.6209375 2.94371094 9.023125 3.61789063 9.4375 4.3125 C10.76217746 4.9962045 12.09613633 5.66214186 13.4375 6.3125 C15.6875 8.25 15.6875 8.25 17.4375 10.3125 C17.4375 11.3025 17.4375 12.2925 17.4375 13.3125 C15.0625 13.9375 15.0625 13.9375 12.4375 14.3125 C11.7775 13.6525 11.1175 12.9925 10.4375 12.3125 C7.76800591 12.06934344 7.76800591 12.06934344 4.8125 12.1875 C3.80960938 12.20554687 2.80671875 12.22359375 1.7734375 12.2421875 C0.61714844 12.27699219 0.61714844 12.27699219 -0.5625 12.3125 C0.076875 12.003125 0.71625 11.69375 1.375 11.375 C3.37360821 10.4779837 3.37360821 10.4779837 4.4375 9.3125 C-0.67485021 6.5863085 -0.67485021 6.5863085 -6.375 7 C-9.59214744 8.08573718 -9.59214744 8.08573718 -11.5625 10.3125 C-14.6875 10.4375 -14.6875 10.4375 -17.5625 10.3125 C-17.8925 8.9925 -18.2225 7.6725 -18.5625 6.3125 C-17.31693908 5.49321114 -16.06583365 4.68234814 -14.8125 3.875 C-13.76835937 3.19630859 -13.76835937 3.19630859 -12.703125 2.50390625 C-8.56925955 0.20312347 -4.69177933 0.10141503 0 0 Z M3.4375 3.3125 C3.4375 3.9725 3.4375 4.6325 3.4375 5.3125 C4.0975 5.3125 4.7575 5.3125 5.4375 5.3125 C5.4375 4.6525 5.4375 3.9925 5.4375 3.3125 C4.7775 3.3125 4.1175 3.3125 3.4375 3.3125 Z " fill="#9AEC46" transform="translate(25.5625,-0.3125)"/>
<path d="M0 0 C2.34914492 2.34914492 2.73140357 3.95679446 3.625 7.125 C3.88539062 8.03507812 4.14578125 8.94515625 4.4140625 9.8828125 C4.70410156 10.93082031 4.70410156 10.93082031 5 12 C2.03 12 -0.94 12 -4 12 C-3.79375 11.278125 -3.5875 10.55625 -3.375 9.8125 C-2.94047789 6.55358415 -3.58319331 4.91695496 -5 2 C-3.35 1.34 -1.7 0.68 0 0 Z " fill="#69E59B" transform="translate(43,12)"/>
<path d="M0 0 C1.32 0 2.64 0 4 0 C4.433125 0.928125 4.86625 1.85625 5.3125 2.8125 C6.90580063 6.19988648 6.90580063 6.19988648 10 9 C6.04 9 2.08 9 -2 9 C-1.34 8.67 -0.68 8.34 0 8 C-0.2784375 6.2984375 -0.2784375 6.2984375 -0.5625 4.5625 C-0.7790625 2.7990625 -0.7790625 2.7990625 -1 1 C-0.67 0.67 -0.34 0.34 0 0 Z " fill="#59E1B7" transform="translate(30,18)"/>
<path d="M0 0 C-0.185625 0.94875 -0.37125 1.8975 -0.5625 2.875 C-1.28686632 5.89868793 -1.28686632 5.89868793 0 8 C-2.97 8 -5.94 8 -9 8 C-9.33 7.34 -9.66 6.68 -10 6 C-9.34 5.67 -8.68 5.34 -8 5 C-7.71125 4.34 -7.4225 3.68 -7.125 3 C-6 1 -6 1 -4 0.25 C-2 0 -2 0 0 0 Z " fill="#59E2B8" transform="translate(18,19)"/>
<path d="M0 0 C1.2065625 0.0309375 1.2065625 0.0309375 2.4375 0.0625 C2.1075 2.7025 1.7775 5.3425 1.4375 8.0625 C-0.2125 8.0625 -1.8625 8.0625 -3.5625 8.0625 C-3.60491723 5.72955225 -3.60342937 3.39547433 -3.5625 1.0625 C-2.5625 0.0625 -2.5625 0.0625 0 0 Z " fill="#75E78B" transform="translate(3.5625,16.9375)"/>
<path d="M0 0 C0 0.99 0 1.98 0 3 C-1 4 -1 4 -4.37890625 4.09765625 C-5.77347077 4.09098369 -7.16801743 4.07902532 -8.5625 4.0625 C-9.27341797 4.05798828 -9.98433594 4.05347656 -10.71679688 4.04882812 C-12.47790013 4.03700864 -14.23896036 4.01907263 -16 4 C-10.96003362 0.64002241 -6.00290323 -0.29282455 0 0 Z " fill="#43DCDF" transform="translate(32,28)"/>
<path d="M0 0 C2.64 0 5.28 0 8 0 C7.625 1.9375 7.625 1.9375 7 4 C4.29120665 5.35439668 1.99066732 5.06501451 -1 5 C-0.67 3.35 -0.34 1.7 0 0 Z " fill="#85EA6B" transform="translate(2,12)"/>
<path d="M0 0 C6 0.66666667 12 1.33333333 18 2 C18 2.33 18 2.66 18 3 C12.06 3 6.12 3 0 3 C0 2.01 0 1.02 0 0 Z " fill="#53E1C4" transform="translate(0,25)"/>
<path d="M0 0 C2.1385485 2.1385485 2.42655063 3.13275314 3 6 C1.02 6 -0.96 6 -3 6 C-3.66 4.68 -4.32 3.36 -5 2 C-3.35 1.34 -1.7 0.68 0 0 Z " fill="#7DE976" transform="translate(43,12)"/>
<path d="M0 0 C1.32 0 2.64 0 4 0 C4.33 1.65 4.66 3.3 5 5 C3.35 5 1.7 5 0 5 C-0.5625 3.0625 -0.5625 3.0625 -1 1 C-0.67 0.67 -0.34 0.34 0 0 Z " fill="#70E498" transform="translate(30,18)"/>
<path d="M0 0 C2.05078125 0.03255208 4.1015625 0.06510417 6.15234375 0.09765625 C6.15234375 1.08765625 6.15234375 2.07765625 6.15234375 3.09765625 C3.90234375 3.78515625 3.90234375 3.78515625 1.15234375 4.09765625 C-1.16015625 2.66015625 -1.16015625 2.66015625 -2.84765625 1.09765625 C-1.84765625 0.09765625 -1.84765625 0.09765625 0 0 Z " fill="#42DFDC" transform="translate(38.84765625,28.90234375)"/>
<path d="M0 0 C-0.33 1.65 -0.66 3.3 -1 5 C-2.98 5 -4.96 5 -7 5 C-6.67 3.68 -6.34 2.36 -6 1 C-3.92446352 0.4465236 -2.15634036 0 0 0 Z " fill="#69E59F" transform="translate(18,19)"/>
<path d="M0 0 C2.97 0 5.94 0 9 0 C8.67 0.99 8.34 1.98 8 3 C5.125 3.1875 5.125 3.1875 2 3 C1.34 2.01 0.68 1.02 0 0 Z " fill="#58E2B6" transform="translate(39,24)"/>
<path d="M0 0 C1.98 0 3.96 0 6 0 C5.67 1.32 5.34 2.64 5 4 C3.35 4 1.7 4 0 4 C0 2.68 0 1.36 0 0 Z " fill="#64E4A7" transform="translate(0,21)"/>
<path d="M0 0 C2.33944736 0.28730055 4.6739143 0.61936779 7 1 C6.67 1.66 6.34 2.32 6 3 C2.37 3 -1.26 3 -5 3 C-3.68 2.34 -2.36 1.68 -1 1 C-0.67 0.67 -0.34 0.34 0 0 Z " fill="#92EB55" transform="translate(30,9)"/>
<path d="M0 0 C1.98 0 3.96 0 6 0 C6 0.99 6 1.98 6 3 C4.68 3.33 3.36 3.66 2 4 C2 3.01 2 2.02 2 1 C1.34 0.67 0.68 0.34 0 0 Z " fill="#3EE1D8" transform="translate(26,28)"/>
<path d="M0 0 C0 0.99 0 1.98 0 3 C-1.65 3.33 -3.3 3.66 -5 4 C-5.33 3.01 -5.66 2.02 -6 1 C-3 0 -3 0 0 0 Z " fill="#8DEA5F" transform="translate(43,10)"/>
<path d="M0 0 C-3.63 0 -7.26 0 -11 0 C-11 -0.33 -11 -0.66 -11 -1 C-3.375 -2.25 -3.375 -2.25 0 0 Z " fill="#93EA51" transform="translate(29,10)"/>
<path d="M0 0 C2.64 0 5.28 0 8 0 C8 0.33 8 0.66 8 1 C5.69 1 3.38 1 1 1 C0.67 1.66 0.34 2.32 0 3 C0 2.01 0 1.02 0 0 Z " fill="#7CE57C" transform="translate(19,18)"/>
<path d="M0 0 C0.66 0.66 1.32 1.32 2 2 C1.01 3.485 1.01 3.485 0 5 C-0.33 4.01 -0.66 3.02 -1 2 C-0.67 1.34 -0.34 0.68 0 0 Z " fill="#80EA72" transform="translate(11,13)"/>
<path d="M0 0 C0 0.99 0 1.98 0 3 C-0.66 2.34 -1.32 1.68 -2 1 C-1.34 0.67 -0.68 0.34 0 0 Z " fill="#3DDAEA" transform="translate(18,37)"/>
<path d="M0 0 C0.33 0 0.66 0 1 0 C1 1.65 1 3.3 1 5 C0.67 5 0.34 5 0 5 C0 3.35 0 1.7 0 0 Z " fill="#41E0D8" transform="translate(46,28)"/>
<path d="M0 0 C0.99 0.495 0.99 0.495 2 1 C1.01 2.485 1.01 2.485 0 4 C0 2.68 0 1.36 0 0 Z " fill="#76E688" transform="translate(7,17)"/>
<path d="M0 0 C0.33 0 0.66 0 1 0 C1 1.65 1 3.3 1 5 C0.67 5 0.34 5 0 5 C0 3.35 0 1.7 0 0 Z " fill="#8EE960" transform="translate(0,10)"/>
<path d="M0 0 C0.99 1.485 0.99 1.485 2 3 C1.34 3 0.68 3 0 3 C0 2.01 0 1.02 0 0 Z " fill="#60E4AD" transform="translate(6,22)"/>
<path d="M0 0 C0.33 0.99 0.66 1.98 1 3 C0.34 2.67 -0.32 2.34 -1 2 C-0.67 1.34 -0.34 0.68 0 0 Z " fill="#66E4A5" transform="translate(9,21)"/>
<path d="M0 0 C4 1 4 1 4 1 Z " fill="#99EB49" transform="translate(18,7)"/>
<path d="M0 0 C3 1 3 1 3 1 Z " fill="#3CD9F2" transform="translate(6,42)"/>
<path d="" fill="#31E0ED" transform="translate(0,0)"/>
<path d="M0 0 C0.99 0.495 0.99 0.495 2 1 C1.01 1.495 1.01 1.495 0 2 C0 1.34 0 0.68 0 0 Z " fill="#3FDCE9" transform="translate(36,32)"/>
<path d="" fill="#64E4AC" transform="translate(0,0)"/>
<path d="" fill="#67E69C" transform="translate(0,0)"/>
<path d="" fill="#73E58D" transform="translate(0,0)"/>
<path d="" fill="#6FE98C" transform="translate(0,0)"/>
<path d="M0 0 C0.66 0 1.32 0 2 0 C1.67 0.66 1.34 1.32 1 2 C0.67 1.34 0.34 0.68 0 0 Z " fill="#85E968" transform="translate(35,13)"/>
<path d="M0 0 C2 1 2 1 2 1 Z " fill="#35DBFB" transform="translate(14,46)"/>
<path d="M0 0 C2 1 2 1 2 1 Z " fill="#3ADEE1" transform="translate(10,44)"/>
<path d="M0 0 C2 1 2 1 2 1 Z " fill="#42D9E3" transform="translate(36,43)"/>
<path d="" fill="#3FDAEA" transform="translate(0,0)"/>
<path d="M0 0 C2 1 2 1 2 1 Z " fill="#3FD9EC" transform="translate(29,36)"/>
<path d="" fill="#3BDDE4" transform="translate(0,0)"/>
<path d="" fill="#3CDEE1" transform="translate(0,0)"/>
<path d="M0 0 C2 1 2 1 2 1 Z " fill="#44DCDC" transform="translate(29,33)"/>
<path d="M0 0 C2 1 2 1 2 1 Z " fill="#50D5E0" transform="translate(14,32)"/>
<path d="M0 0 C2 1 2 1 2 1 Z " fill="#45DBE4" transform="translate(10,31)"/>
<path d="M0 0 C2 1 2 1 2 1 Z " fill="#49E0D1" transform="translate(22,28)"/>
<path d="M0 0 C2 1 2 1 2 1 Z " fill="#55DEC2" transform="translate(25,26)"/>
<path d="M0 0 C2 1 2 1 2 1 Z " fill="#52E3B9" transform="translate(18,25)"/>
<path d="" fill="#5CE3B4" transform="translate(0,0)"/>
<path d="" fill="#70E2A3" transform="translate(0,0)"/>
<path d="" fill="#72E394" transform="translate(0,0)"/>
<path d="" fill="#7EE289" transform="translate(0,0)"/>
<path d="" fill="#7DE389" transform="translate(0,0)"/>
<path d="" fill="#7EE878" transform="translate(0,0)"/>
<path d="" fill="#89E27B" transform="translate(0,0)"/>
<path d="" fill="#83E86F" transform="translate(0,0)"/>
<path d="" fill="#90E375" transform="translate(0,0)"/>
<path d="" fill="#97E56E" transform="translate(0,0)"/>
<path d="M0 0 C2 1 2 1 2 1 Z " fill="#9EEB4E" transform="translate(8,3)"/>
<path d="M0 0 C2 1 2 1 2 1 Z " fill="#A3E559" transform="translate(35,2)"/>
<path d="M0 0 C2 1 2 1 2 1 Z " fill="#9EED44" transform="translate(11,1)"/>
<path d="M0 0 C2 1 2 1 2 1 Z " fill="#9EED47" transform="translate(13,0)"/>
<path d="" fill="#44D6F2" transform="translate(0,0)"/>
<path d="" fill="#34E0EA" transform="translate(0,0)"/>
<path d="" fill="#33E0EA" transform="translate(0,0)"/>
<path d="" fill="#3BDDE6" transform="translate(0,0)"/>
<path d="" fill="#3BDDE4" transform="translate(0,0)"/>
<path d="" fill="#33E1E8" transform="translate(0,0)"/>
<path d="" fill="#37DDEE" transform="translate(0,0)"/>
<path d="" fill="#51CEFA" transform="translate(0,0)"/>
<path d="" fill="#3CDBEC" transform="translate(0,0)"/>
<path d="" fill="#41D8EE" transform="translate(0,0)"/>
<path d="" fill="#36DEF0" transform="translate(0,0)"/>
<path d="" fill="#4FD1EC" transform="translate(0,0)"/>
<path d="" fill="#39DCEE" transform="translate(0,0)"/>
<path d="" fill="#33E2E0" transform="translate(0,0)"/>
<path d="" fill="#43D8EC" transform="translate(0,0)"/>
<path d="" fill="#39DDEC" transform="translate(0,0)"/>
<path d="" fill="#3BDDE4" transform="translate(0,0)"/>
<path d="" fill="#49D5EA" transform="translate(0,0)"/>
<path d="" fill="#44D7EA" transform="translate(0,0)"/>
<path d="" fill="#47D5EC" transform="translate(0,0)"/>
<path d="" fill="#3CDDE0" transform="translate(0,0)"/>
<path d="" fill="#41D9E8" transform="translate(0,0)"/>
<path d="" fill="#3FDAE8" transform="translate(0,0)"/>
<path d="" fill="#4AD7E7" transform="translate(0,0)"/>
<path d="" fill="#47DADF" transform="translate(0,0)"/>
<path d="" fill="#45D9E9" transform="translate(0,0)"/>
<path d="" fill="#48DAE4" transform="translate(0,0)"/>
<path d="" fill="#4ADAE2" transform="translate(0,0)"/>
<path d="" fill="#50D7E0" transform="translate(0,0)"/>
<path d="" fill="#46DCDE" transform="translate(0,0)"/>
<path d="" fill="#46DDDA" transform="translate(0,0)"/>
<path d="" fill="#54DFC4" transform="translate(0,0)"/>
<path d="" fill="#50DEC9" transform="translate(0,0)"/>
<path d="" fill="#51DDC7" transform="translate(0,0)"/>
<path d="" fill="#56DFC0" transform="translate(0,0)"/>
<path d="" fill="#50E4BD" transform="translate(0,0)"/>
<path d="" fill="#58E4B2" transform="translate(0,0)"/>
<path d="" fill="#5FE4A8" transform="translate(0,0)"/>
<path d="" fill="#6AE59C" transform="translate(0,0)"/>
<path d="" fill="#7DE879" transform="translate(0,0)"/>
<path d="" fill="#9FE365" transform="translate(0,0)"/>
<path d="" fill="#99E754" transform="translate(0,0)"/>
<path d="" fill="#9BE65B" transform="translate(0,0)"/>
<path d="" fill="#95EB53" transform="translate(0,0)"/>
<path d="" fill="#A1E658" transform="translate(0,0)"/>
<path d="" fill="#9BE762" transform="translate(0,0)"/>
<path d="" fill="#9AEB47" transform="translate(0,0)"/>
<path d="" fill="#A3E74C" transform="translate(0,0)"/>
<path d="" fill="#9EE856" transform="translate(0,0)"/>
<path d="" fill="#A7E558" transform="translate(0,0)"/>
<path d="" fill="#9EE950" transform="translate(0,0)"/>
<path d="" fill="#A7E55A" transform="translate(0,0)"/>
<path d="" fill="#9EE856" transform="translate(0,0)"/>
<path d="" fill="#A1EB49" transform="translate(0,0)"/>
<path d="" fill="#A3E74E" transform="translate(0,0)"/>
<path d="" fill="#9EEB54" transform="translate(0,0)"/>
<path d="" fill="#A3E946" transform="translate(0,0)"/>
</svg>
